HIERARCHY
ROOT hip
{
	OFFSET 0.000000 0.000000 0.000000 
	CHANNELS 6 Xposition Yposition Zposition Xrotation Zrotation Yrotation
	JOINT abdomen
	{
		OFFSET 0.000000 3.402643 0.000000 
		CHANNELS 3 Xrotation Zrotation Yrotation
		JOINT chest
		{
			OFFSET 0.000000 8.438565 -0.680529 
			CHANNELS 3 Xrotation Zrotation Yrotation
			JOINT neck
			{
				OFFSET 0.000000 10.207942 -0.272212 
				CHANNELS 3 Xrotation Zrotation Yrotation
				JOINT head
				{
					OFFSET 0.000000 3.130431 0.000000 
					CHANNELS 3 Xrotation Zrotation Yrotation
					End Site
					{
						OFFSET 0.000000 3.130435 0.000000 
					}
				}
			}
			JOINT lCollar
			{
				OFFSET 3.470700 6.669187 -0.816635 
				CHANNELS 3 Yrotation Zrotation Xrotation
				JOINT lShldr
				{
					OFFSET 3.198488 0.000000 0.000000 
					CHANNELS 3 Zrotation Yrotation Xrotation
					JOINT lForeArm
					{
						OFFSET 10.139888 0.000000 0.000000 
						CHANNELS 3 Yrotation Zrotation Xrotation
						JOINT lHand
						{
							OFFSET 8.370511 0.000000 0.000000 
							CHANNELS 3 Zrotation Yrotation Xrotation
							End Site
							{
								OFFSET 4.083176 0.000000 0.000000 
							}
						}
					}
				}
			}
			JOINT rCollar
			{
				OFFSET -3.470700 6.669187 -0.816635 
				CHANNELS 3 Yrotation Zrotation Xrotation
				JOINT rShldr
				{
					OFFSET -3.198488 0.000000 0.000000 
					CHANNELS 3 Zrotation Yrotation Xrotation
					JOINT rForeArm
					{
						OFFSET -10.139888 0.000000 0.000000 
						CHANNELS 3 Yrotation Zrotation Xrotation
						JOINT rHand
						{
							OFFSET -8.370511 0.000000 0.000000 
							CHANNELS 3 Zrotation Yrotation Xrotation
							End Site
							{
								OFFSET -4.083176 0.000000 0.000000 
							}
						}
					}
				}
			}
		}
	}
	JOINT lThigh
	{
		OFFSET 5.308129 -1.633274 1.361059 
		CHANNELS 3 Xrotation Zrotation Yrotation
		JOINT lShin
		{
			OFFSET -2.041588 -20.007561 0.000000 
			CHANNELS 3 Xrotation Zrotation Yrotation
			JOINT lFoot
			{
				OFFSET 0.000000 -19.190928 -1.224953 
				CHANNELS 3 Xrotation Yrotation Zrotation
				End Site
				{
					OFFSET 0.000000 -2.449906 4.627600 
				}
			}
		}
	}
	JOINT rThigh
	{
		OFFSET -5.308129 -1.633274 1.361059 
		CHANNELS 3 Xrotation Zrotation Yrotation
		JOINT rShin
		{
			OFFSET 2.041588 -20.007561 0.000000 
			CHANNELS 3 Xrotation Zrotation Yrotation
			JOINT rFoot
			{
				OFFSET 0.000000 -19.190928 -1.224953 
				CHANNELS 3 Xrotation Yrotation Zrotation
				End Site
				{
					OFFSET 0.000000 -2.449906 4.627600 
				}
			}
		}
	}
}
MOTION
Frames: 13
Frame Time: 0.033333
1.826799 49.468178 -20.094801 0.000000 0.000000 169.980469 0.000000 0.000000 0.000000 0.527344 0.000000 0.000000 -5.429688 -2.539063 -4.678167 5.585938 2.041015 -0.224609 -2.822266 -0.097656 -0.019515 -79.609375 1.210938 -4.784948 -5.800781 -5.937500 5.801791 3.398438 -0.849609 -6.162237 2.792969 0.068359 -0.019531 78.398438 1.074219 5.224609 -5.673828 3.164063 5.185008 -2.050781 1.523438 -5.439454 2.868016 2.029709 8.077724 -2.607926 -3.726516 0.261191 -0.195499 4.671553 1.008630 0.819641 -4.623509 7.847574 4.600452 5.068394 0.648092 -8.237015 -4.525788 -1.692469 
1.826799 49.468178 -20.094801 0.000000 0.000000 169.980469 0.000000 0.000000 0.000000 1.054688 0.000000 0.000000 -5.429688 -2.539063 -4.678167 5.585938 2.041015 -0.224609 -2.822266 -0.097656 -0.019515 -79.433594 -0.546875 -4.873131 -5.800781 -5.937500 5.801791 3.398438 -0.849609 -6.162237 2.792969 0.068359 -0.019531 78.574219 2.998047 5.185547 -5.673828 3.164063 5.185008 -2.050781 1.523438 -5.439454 2.868016 2.029709 8.077724 -2.607926 -3.726516 0.261191 -0.195499 4.671553 1.008630 0.819641 -4.623509 7.847574 4.600452 5.068394 0.648092 -8.237015 -4.525788 -1.692469 
1.826799 49.468178 -20.094801 0.000000 0.000000 169.980469 0.000000 0.000000 0.000000 1.572266 0.000000 0.000000 -5.429688 -2.539063 -4.678167 5.585938 2.041015 -0.224609 -2.822266 -0.097656 -0.019515 -79.267578 -2.128906 -4.941769 -5.800781 -5.937500 5.801791 3.398438 -0.849609 -6.162237 2.792969 0.068359 -0.019531 78.750000 4.755859 5.146484 -5.673828 3.164063 5.185008 -2.050781 1.523438 -5.439454 2.868016 2.029709 8.077724 -2.607926 -3.726516 0.261191 -0.195499 4.671553 1.008630 0.819641 -4.623509 7.847574 4.600452 5.068394 0.648092 -8.237015 -4.525788 -1.692469 
1.826799 49.468178 -20.094801 0.000000 0.000000 169.980469 0.000000 0.000000 0.000000 2.275391 0.000000 0.000000 -5.429688 -2.539063 -4.678167 5.585938 2.041015 -0.224609 -2.822266 -0.097656 -0.019515 -79.091797 -3.896484 -5.020193 -5.800781 -5.937500 5.801791 3.398438 -0.849609 -6.162237 2.792969 0.068359 -0.019531 78.916016 6.699219 5.118329 -5.673828 3.164063 5.185008 -2.050781 1.523438 -5.439454 2.868016 2.029709 8.077724 -2.607926 -3.726516 0.261191 -0.195499 4.671553 1.008630 0.819641 -4.623509 7.847574 4.600452 5.068394 0.648092 -8.237015 -4.525788 -1.692469 
1.826799 49.468178 -20.094801 0.000000 0.000000 169.980469 0.000000 0.000000 0.000000 2.812500 0.000000 0.000000 -5.429688 -2.539063 -4.678167 5.585938 2.041015 -0.224609 -2.822266 -0.097656 -0.019515 -78.906250 -5.644532 -5.107422 -5.800781 -5.937500 5.801791 3.398438 -0.849609 -6.162237 2.792969 0.068359 -0.019531 79.091797 8.457032 5.068359 -5.673828 3.164063 5.185008 -2.050781 1.523438 -5.439454 2.868016 2.029709 8.077724 -2.607926 -3.726516 0.261191 -0.195499 4.671553 1.008630 0.819641 -4.623509 7.847574 4.600452 5.068394 0.648092 -8.237015 -4.525788 -1.692469 
1.826799 49.468178 -20.094801 0.000000 0.000000 169.980469 0.000000 0.000000 0.000000 3.339844 0.000000 0.000000 -5.429688 -2.539063 -4.678167 5.585938 2.041015 -0.224609 -2.822266 -0.097656 -0.019515 -78.710938 -7.236329 -5.177011 -5.800781 -5.937500 5.801791 3.398438 -0.849609 -6.162237 2.792969 0.068359 -0.019531 79.082031 10.214844 5.011499 -5.673828 3.164063 5.185008 -2.050781 1.523438 -5.439454 2.868016 2.029709 8.077724 -2.607926 -3.726516 0.261191 -0.195499 4.671553 1.008630 0.819641 -4.623509 7.847574 4.600452 5.068394 0.648092 -8.237015 -4.525788 -1.692469 
1.826799 49.468178 -20.094801 0.000000 0.000000 169.980469 0.000000 0.000000 0.000000 3.867188 0.000000 0.000000 -5.429688 -2.539063 -4.678167 5.585938 2.041015 -0.224609 -2.822266 -0.097656 -0.019515 -78.710938 -8.984374 -5.440977 -5.800781 -5.937500 5.801791 3.398438 -0.849609 -6.162237 2.792969 0.068359 -0.019531 79.257813 12.148438 4.960938 -5.673828 3.164063 5.185008 -2.050781 1.523438 -5.439454 2.868016 2.029709 8.077724 -2.607926 -3.726516 0.261191 -0.195499 4.671553 1.008630 0.819641 -4.623509 7.847574 4.600452 5.068394 0.648092 -8.237015 -4.525788 -1.692469 
1.826799 49.468178 -20.094801 0.000000 0.000000 169.980469 0.000000 0.000000 0.000000 4.384766 0.000000 0.000000 -5.429688 -2.539063 -4.678167 5.585938 2.041015 -0.224609 -2.822266 -0.097656 -0.019515 -78.525391 -10.556642 -5.499836 -5.800781 -5.937500 5.801791 3.398438 -0.849609 -6.162237 2.792969 0.068359 -0.019531 79.423828 14.082031 4.924252 -5.673828 3.164063 5.185008 -2.050781 1.523438 -5.439454 2.868016 2.029709 8.077724 -2.607926 -3.726516 0.261191 -0.195499 4.671553 1.008630 0.819641 -4.623509 7.847574 4.600452 5.068394 0.648092 -8.237015 -4.525788 -1.692469 
1.826799 49.468178 -20.094801 0.000000 0.000000 169.980469 0.000000 0.000000 0.000000 5.087891 0.000000 0.000000 -5.429688 -2.539063 -4.678167 5.585938 2.041015 -0.224609 -2.822266 -0.097656 -0.019515 -78.330078 -12.314454 -5.588021 -5.800781 -5.937500 5.801791 3.398438 -0.849609 -6.162237 2.792969 0.068359 -0.019531 79.570313 16.015625 5.039062 -5.673828 3.164063 5.185008 -2.050781 1.523438 -5.439454 2.868016 2.029709 8.077724 -2.607926 -3.726516 0.261191 -0.195499 4.671553 1.008630 0.819641 -4.623509 7.847574 4.600452 5.068394 0.648092 -8.237015 -4.525788 -1.692469 
1.826799 49.468178 -20.094801 0.000000 0.000000 169.980469 0.000000 0.000000 0.000000 5.625000 0.000000 0.000000 -5.429688 -2.539063 -4.678167 5.585938 2.041015 -0.224609 -2.822266 -0.097656 -0.019515 -78.144531 -13.896485 -5.646876 -5.800781 -5.937500 5.801791 3.398438 -0.849609 -6.162237 2.792969 0.068359 -0.019531 79.912109 17.763672 5.009766 -5.673828 3.164063 5.185008 -2.050781 1.523438 -5.439454 2.868016 2.029709 8.077724 -2.607926 -3.726516 0.261191 -0.195499 4.671553 1.008630 0.819641 -4.623509 7.847574 4.600452 5.068394 0.648092 -8.237015 -4.525788 -1.692469 
1.826799 49.518833 -21.464899 0.000000 0.000000 169.980469 0.000000 0.000000 0.000000 5.087891 0.000000 0.000000 -5.429688 -2.539063 -4.678167 5.585938 2.041015 -0.224609 -2.822266 -0.097656 -0.019515 -78.525391 -10.898437 -5.519422 -5.800781 -5.937500 5.801791 3.398438 -0.849609 -6.162237 2.792969 0.068359 -0.019531 79.912109 17.763672 5.009766 -2.333985 3.154297 5.117188 -2.050781 1.523438 -5.439454 0.477727 2.396713 8.035456 -1.914127 -3.735279 0.212529 -0.185089 4.504026 0.953954 0.819641 -4.623509 7.847574 7.333118 4.822757 0.851126 -7.863549 -4.533549 -1.496566 
1.826799 49.721470 -23.291698 0.000000 0.000000 169.980469 0.000000 0.000000 0.000000 4.746094 0.000000 0.000000 -5.429688 -2.539063 -4.678167 5.585938 2.041015 -0.224609 -2.822266 -0.097656 -0.019515 -78.710938 -7.744140 -5.206392 -5.800781 -5.937500 5.801791 3.398438 -0.849609 -6.162237 2.792969 0.068359 -0.019531 79.912109 17.763672 5.009766 -0.048828 3.134766 5.068359 -2.050781 1.523438 -5.439454 -1.764748 2.738255 8.353376 -1.445317 -3.763730 0.170512 0.033246 4.682293 0.981269 0.819641 -4.623509 7.847574 10.525392 4.851528 1.109634 -7.950850 -4.667789 -1.551857 
1.826799 49.844479 -25.118500 0.000000 0.000000 169.980469 0.000000 0.000000 0.000000 4.218750 0.000000 0.000000 -5.429688 -2.539063 -4.678167 5.585938 2.041015 -0.224609 -2.822266 -0.097656 -0.019515 -79.082031 -4.765625 -5.058593 -5.800781 -5.937500 5.801791 3.398438 -0.849609 -6.162237 2.792969 0.068359 -0.019531 79.912109 17.763672 5.009766 4.355469 3.105469 4.970174 -2.050781 1.523438 -5.439454 -4.055945 2.932744 8.653981 -0.595757 -3.800695 0.091616 0.064240 4.638566 0.984346 0.819641 -4.623512 7.847574 13.578508 4.801219 1.361488 -7.933736 -4.442626 -1.446978 
